<?xml version="1.0" encoding="UTF-8"?>
<svg version="1.1" xmlns="http://www.w3.org/2000/svg" width="102" height="105">
<path d="M0 0 C3.81018252 3.01335495 5.67604121 5.36433233 6.65234375 10.09765625 C7.01032493 17.61526097 5.93330333 24.69782726 4.65234375 32.09765625 C-1.57032831 31.51061172 -1.57032831 31.51061172 -4.34765625 30.03515625 C-5.72563241 27.36532745 -5.16060091 25.24385579 -4.69140625 22.359375 C-4.1188751 18.5923803 -3.8089829 14.88376039 -4.34765625 11.09765625 C-6.48507987 8.27625707 -7.93641542 8.15640494 -11.41015625 7.66015625 C-26.59930789 9.34783977 -38.81408368 19.70795838 -48.34765625 31.09765625 C-56.10076829 41.22834973 -64.08195373 53.90255304 -63.34765625 67.09765625 C-62.41938807 72.12798573 -60.48621362 75.91896662 -56.25415039 79.01245117 C-48.45152998 83.45381982 -40.76825742 84.73667659 -31.91015625 84.53515625 C-30.87826172 84.52266846 -29.84636719 84.51018066 -28.78320312 84.49731445 C-15.84661811 84.20645968 -3.43280017 82.78585863 8.65234375 78.09765625 C11.65234375 77.91015625 11.65234375 77.91015625 13.65234375 78.09765625 C13.98234375 79.41765625 14.31234375 80.73765625 14.65234375 82.09765625 C7.67348457 84.1758861 0.67238959 86.16336421 -6.34765625 88.09765625 C-7.59675781 88.44957031 -8.84585938 88.80148438 -10.1328125 89.1640625 C-25.30472509 92.83726239 -47.18581134 94.75088781 -61.34765625 87.09765625 C-67.36700671 83.10730033 -70.95607648 78.77842457 -73.03515625 71.78515625 C-74.97201055 55.12820928 -67.54660205 40.93917741 -57.50439453 28.08300781 C-48.54558022 16.99364367 -38.82567736 8.05236378 -26.34765625 1.09765625 C-25.29191406 0.49630859 -25.29191406 0.49630859 -24.21484375 -0.1171875 C-17.33089498 -3.35055738 -6.5250004 -3.70790571 0 0 Z " fill="#000000" transform="translate(80.34765625,8.90234375)"/>
</svg>
